# xmcd
#
# Track frame offsets: 
#        150
#        18979
#        39452
#        56812
#        77743
#        96243
#        121802
#        143838
#        166789
#        185242
#        210474
#        232029
#        250447
#        275655
#
# Disc length: 4038 seconds
#
# Revision: 0
# Processed by: cddbd v1.5.2PL0 Copyright (c) Steve Scherf et al.
# Submitted via: ExactAudioCopy v1.3
#
DISCID=c70fc40e
DTITLE=Kenny Chesney - Live (Live Those Songs Again)
DYEAR=2006
DGENRE=Country
TTITLE0=Live Those Songs Again
TTITLE1=Young
TTITLE2=Never Gonna Feel Like That Again
TTITLE3=Beer In Mexico
TTITLE4=Keg In The Closet
TTITLE5=What I Need To Do
TTITLE6=I Go Back
TTITLE7=When The Sun Goes Down
TTITLE8=On The Coast Of Somewhere Beautiful
TTITLE9=Anything But Mine
TTITLE10=Back Where I Come From
TTITLE11=Just Don't Happen Twice
TTITLE12=How Forever Feels
TTITLE13=She Thinks My Tractors Sexy
EXTD=
EXTT0=
EXTT1=
EXTT2=
EXTT3=
EXTT4=
EXTT5=
EXTT6=
EXTT7=
EXTT8=
EXTT9=
EXTT10=
EXTT11=
EXTT12=
EXTT13=
PLAYORDER=
